<svg width="24" height="24" viewBox="0 0 24 24" fill="none" xmlns="http://www.w3.org/2000/svg">
<g id="report_problem_24px">
<g id="icon/action/report_problem_24px">
<path fill-rule="evenodd" clip-rule="evenodd" d="M1 21.5L12 2.5L23 21.5H1ZM19.53 19.5L12 6.49L4.47 19.5H19.53ZM11 16.5V18.5H13V16.5H11ZM11 10.5H13V14.5H11V10.5Z" fill="black" fill-opacity="0.54"/>
<path d="M12 2.5L12.4327 2.24948L12 1.50207L11.5673 2.24948L12 2.5ZM1 21.5L0.567287 21.2495L0.132776 22H1V21.5ZM23 21.5V22H23.8672L23.4327 21.2495L23 21.5ZM12 6.49L12.4327 6.23953L12 5.49186L11.5673 6.23953L12 6.49ZM19.53 19.5V20H20.3971L19.9627 19.2495L19.53 19.5ZM4.47 19.5L4.03726 19.2495L3.6029 20H4.47V19.5ZM11 18.5H10.5V19H11V18.5ZM11 16.5V16H10.5V16.5H11ZM13 18.5V19H13.5V18.5H13ZM13 16.5H13.5V16H13V16.5ZM13 10.5H13.5V10H13V10.5ZM11 10.5V10H10.5V10.5H11ZM13 14.5V15H13.5V14.5H13ZM11 14.5H10.5V15H11V14.5ZM11.5673 2.24948L0.567287 21.2495L1.43271 21.7505L12.4327 2.75052L11.5673 2.24948ZM23.4327 21.2495L12.4327 2.24948L11.5673 2.75052L22.5673 21.7505L23.4327 21.2495ZM1 22H23V21H1V22ZM11.5673 6.74047L19.0973 19.7505L19.9627 19.2495L12.4327 6.23953L11.5673 6.74047ZM4.90274 19.7505L12.4327 6.74047L11.5673 6.23953L4.03726 19.2495L4.90274 19.7505ZM19.53 19H4.47V20H19.53V19ZM11.5 18.5V16.5H10.5V18.5H11.5ZM13 18H11V19H13V18ZM12.5 16.5V18.5H13.5V16.5H12.5ZM11 17H13V16H11V17ZM13 10H11V11H13V10ZM13.5 14.5V10.5H12.5V14.5H13.5ZM11 15H13V14H11V15ZM10.5 10.5V14.5H11.5V10.5H10.5Z" fill="#F02849"/>
</g>
</g>
</svg>
